# xmcd
#
# Track frame offsets:
#	182
#	14092
#	29445
#	45917
#	61610
#	74897
#	90412
#	107360
#	121475
#	138037
#	149897
#	166967
#
# Disc length: 2399 seconds
#
# Revision: 0
# Processed by: cddbd v1.4PL0 Copyright (c) Steve Scherf et al.
# Submitted via: audiograbber 1.81.01
#
DISCID=a4095d0c
DTITLE=Wess e Dori Ghezzi - I grandi successi originali cd1
DYEAR=1900
DGENRE=pop
TTITLE0=Voglio stare con te
TTITLE1=Tu nella mia vita
TTITLE2=Noi due per sempre
TTITLE3=Se mi vuoi ancora bene
TTITLE4=Sentimento sentimento
TTITLE5=La vita mi ha prestato te
TTITLE6=Un corpo e un' anima
TTITLE7=Tutto bene
TTITLE8=Non ci sei soltanto tù
TTITLE9=Se qualcuno ti dirà
TTITLE10=Come stai, Con chi sei?
TTITLE11=Era
EXTD=
EXTT0=
EXTT1=
EXTT2=
EXTT3=
EXTT4=
EXTT5=
EXTT6=
EXTT7=
EXTT8=
EXTT9=
EXTT10=
EXTT11=
PLAYORDER=
